<?xml version="1.0" standalone="no"?>
<!DOCTYPE svg PUBLIC "-//W3C//DTD SVG 20010904//EN"
 "http://www.w3.org/TR/2001/REC-SVG-20010904/DTD/svg10.dtd">
<svg version="1.0" xmlns="http://www.w3.org/2000/svg"
 width="48.000000pt" height="48.000000pt" viewBox="0 0 48.000000 48.000000"
 preserveAspectRatio="xMidYMid meet">
<metadata>
Created by potrace 1.16, written by Peter Selinger 2001-2019
</metadata>
<g transform="translate(0.000000,48.000000) scale(0.100000,-0.100000)"
fill="#000000" stroke="none">
<path d="M0 240 l0 -240 113 2 c61 1 95 3 75 5 -27 3 -38 9 -38 21 0 12 3 13
12 4 7 -7 32 -12 56 -12 26 0 41 -4 37 -10 -4 -6 35 -10 109 -10 l116 0 0 240
0 240 -240 0 -240 0 0 -240z m275 92 c29 3 35 1 35 -15 0 -26 -17 -55 -40 -67
-15 -8 -27 -7 -50 5 -26 13 -29 20 -24 43 11 53 13 55 29 42 8 -7 31 -10 50
-8z m-101 -27 c3 -8 1 -15 -4 -15 -6 0 -10 7 -10 15 0 8 2 15 4 15 2 0 6 -7
10 -15z m56 -70 c30 -15 42 -55 18 -55 -16 0 -58 41 -58 57 0 17 4 16 40 -2z
m-38 -62 c44 -43 50 -63 12 -38 l-27 17 5 -31 c3 -18 1 -34 -4 -37 -18 -11 4
-23 32 -18 17 4 37 1 50 -9 l21 -14 -23 -7 c-13 -3 -37 -6 -54 -6 -25 0 -33 6
-48 38 -44 90 -46 97 -30 120 8 12 18 22 22 22 3 0 23 -17 44 -37z m148 -8
c29 -42 30 -45 10 -45 -13 0 -20 7 -20 19 0 11 -4 22 -9 25 -4 3 -6 -6 -3 -19
3 -17 0 -25 -9 -25 -10 0 -14 14 -14 45 0 25 3 45 7 45 4 0 21 -20 38 -45z
m-77 -69 c4 -10 -5 -15 -34 -18 -21 -2 -39 -3 -39 -2 0 1 3 9 6 18 8 20 60 21
67 2z m125 -10 c5 -24 -14 -36 -55 -36 -22 0 -33 5 -33 14 0 8 -3 21 -6 29 -4
12 4 15 43 13 38 -1 48 -5 51 -20z m-58 -61 c0 -9 -9 -15 -25 -15 -26 0 -34
15 -12 23 23 10 37 7 37 -8z"/>
</g>
</svg>
